<?xml version="1.0" encoding="utf-8" standalone="no"?>
<!DOCTYPE svg PUBLIC "-//W3C//DTD SVG 1.1//EN"
  "http://www.w3.org/Graphics/SVG/1.1/DTD/svg11.dtd">
<svg xmlns:xlink="http://www.w3.org/1999/xlink" width="864pt" height="432pt" viewBox="0 0 864 432" xmlns="http://www.w3.org/2000/svg" version="1.1">
 <metadata>
  <rdf:RDF xmlns:dc="http://purl.org/dc/elements/1.1/" xmlns:cc="http://creativecommons.org/ns#" xmlns:rdf="http://www.w3.org/1999/02/22-rdf-syntax-ns#">
   <cc:Work>
    <dc:type rdf:resource="http://purl.org/dc/dcmitype/StillImage"/>
    <dc:date>2023-03-30T15:17:34.128993</dc:date>
    <dc:format>image/svg+xml</dc:format>
    <dc:creator>
     <cc:Agent>
      <dc:title>Matplotlib v3.6.2, https://matplotlib.org/</dc:title>
     </cc:Agent>
    </dc:creator>
   </cc:Work>
  </rdf:RDF>
 </metadata>
 <defs>
  <style type="text/css">*{stroke-linejoin: round; stroke-linecap: butt}</style>
 </defs>
 <g id="figure_1">
  <g id="patch_1">
   <path d="M 0 432 
L 864 432 
L 864 0 
L 0 0 
z
" style="fill: #ffffff"/>
  </g>
  <g id="axes_1">
   <g id="patch_2">
    <path d="M 108 384.48 
L 412.363636 384.48 
L 412.363636 51.84 
L 108 51.84 
z
" style="fill: #ffffff"/>
   </g>
   <g id="matplotlib.axis_1">
    <g id="xtick_1">
     <g id="line2d_1">
      <defs>
       <path id="mc98122ce36" d="M 0 0 
L 0 3.5 
" style="stroke: #000000; stroke-width: 0.8"/>
      </defs>
      <g>
       <use xlink:href="#mc98122ce36" x="121.834711" y="384.48" style="stroke: #000000; stroke-width: 0.8"/>
      </g>
     </g>
     <g id="text_1">
      <!-- 450 -->
      <g transform="translate(112.290961 399.078438) scale(0.1 -0.1)">
       <defs>
        <path id="DejaVuSans-34" d="M 2419 4116 
L 825 1625 
L 2419 1625 
L 2419 4116 
z
M 2253 4666 
L 3047 4666 
L 3047 1625 
L 3713 1625 
L 3713 1100 
L 3047 1100 
L 3047 0 
L 2419 0 
L 2419 1100 
L 313 1100 
L 313 1709 
L 2253 4666 
z
" transform="scale(0.015625)"/>
        <path id="DejaVuSans-35" d="M 691 4666 
L 3169 4666 
L 3169 4134 
L 1269 4134 
L 1269 2991 
Q 1406 3038 1543 3061 
Q 1681 3084 1819 3084 
Q 2600 3084 3056 2656 
Q 3513 2228 3513 1497 
Q 3513 744 3044 326 
Q 2575 -91 1722 -91 
Q 1428 -91 1123 -41 
Q 819 9 494 109 
L 494 744 
Q 775 591 1075 516 
Q 1375 441 1709 441 
Q 2250 441 2565 725 
Q 2881 1009 2881 1497 
Q 2881 1984 2565 2268 
Q 2250 2553 1709 2553 
Q 1456 2553 1204 2497 
Q 953 2441 691 2322 
L 691 4666 
z
" transform="scale(0.015625)"/>
        <path id="DejaVuSans-30" d="M 2034 4250 
Q 1547 4250 1301 3770 
Q 1056 3291 1056 2328 
Q 1056 1369 1301 889 
Q 1547 409 2034 409 
Q 2525 409 2770 889 
Q 3016 1369 3016 2328 
Q 3016 3291 2770 3770 
Q 2525 4250 2034 4250 
z
M 2034 4750 
Q 2819 4750 3233 4129 
Q 3647 3509 3647 2328 
Q 3647 1150 3233 529 
Q 2819 -91 2034 -91 
Q 1250 -91 836 529 
Q 422 1150 422 2328 
Q 422 3509 836 4129 
Q 1250 4750 2034 4750 
z
" transform="scale(0.015625)"/>
       </defs>
       <use xlink:href="#DejaVuSans-34"/>
       <use xlink:href="#DejaVuSans-35" x="63.623047"/>
       <use xlink:href="#DejaVuSans-30" x="127.246094"/>
      </g>
     </g>
    </g>
    <g id="xtick_2">
     <g id="line2d_2">
      <g>
       <use xlink:href="#mc98122ce36" x="178.302918" y="384.48" style="stroke: #000000; stroke-width: 0.8"/>
      </g>
     </g>
     <g id="text_2">
      <!-- 460 -->
      <g transform="translate(168.759168 399.078438) scale(0.1 -0.1)">
       <defs>
        <path id="DejaVuSans-36" d="M 2113 2584 
Q 1688 2584 1439 2293 
Q 1191 2003 1191 1497 
Q 1191 994 1439 701 
Q 1688 409 2113 409 
Q 2538 409 2786 701 
Q 3034 994 3034 1497 
Q 3034 2003 2786 2293 
Q 2538 2584 2113 2584 
z
M 3366 4563 
L 3366 3988 
Q 3128 4100 2886 4159 
Q 2644 4219 2406 4219 
Q 1781 4219 1451 3797 
Q 1122 3375 1075 2522 
Q 1259 2794 1537 2939 
Q 1816 3084 2150 3084 
Q 2853 3084 3261 2657 
Q 3669 2231 3669 1497 
Q 3669 778 3244 343 
Q 2819 -91 2113 -91 
Q 1303 -91 875 529 
Q 447 1150 447 2328 
Q 447 3434 972 4092 
Q 1497 4750 2381 4750 
Q 2619 4750 2861 4703 
Q 3103 4656 3366 4563 
z
" transform="scale(0.015625)"/>
       </defs>
       <use xlink:href="#DejaVuSans-34"/>
       <use xlink:href="#DejaVuSans-36" x="63.623047"/>
       <use xlink:href="#DejaVuSans-30" x="127.246094"/>
      </g>
     </g>
    </g>
    <g id="xtick_3">
     <g id="line2d_3">
      <g>
       <use xlink:href="#mc98122ce36" x="234.771125" y="384.48" style="stroke: #000000; stroke-width: 0.8"/>
      </g>
     </g>
     <g id="text_3">
      <!-- 470 -->
      <g transform="translate(225.227375 399.078438) scale(0.1 -0.1)">
       <defs>
        <path id="DejaVuSans-37" d="M 525 4666 
L 3525 4666 
L 3525 4397 
L 1831 0 
L 1172 0 
L 2766 4134 
L 525 4134 
L 525 4666 
z
" transform="scale(0.015625)"/>
       </defs>
       <use xlink:href="#DejaVuSans-34"/>
       <use xlink:href="#DejaVuSans-37" x="63.623047"/>
       <use xlink:href="#DejaVuSans-30" x="127.246094"/>
      </g>
     </g>
    </g>
    <g id="xtick_4">
     <g id="line2d_4">
      <g>
       <use xlink:href="#mc98122ce36" x="291.239332" y="384.48" style="stroke: #000000; stroke-width: 0.8"/>
      </g>
     </g>
     <g id="text_4">
      <!-- 480 -->
      <g transform="translate(281.695582 399.078438) scale(0.1 -0.1)">
       <defs>
        <path id="DejaVuSans-38" d="M 2034 2216 
Q 1584 2216 1326 1975 
Q 1069 1734 1069 1313 
Q 1069 891 1326 650 
Q 1584 409 2034 409 
Q 2484 409 2743 651 
Q 3003 894 3003 1313 
Q 3003 1734 2745 1975 
Q 2488 2216 2034 2216 
z
M 1403 2484 
Q 997 2584 770 2862 
Q 544 3141 544 3541 
Q 544 4100 942 4425 
Q 1341 4750 2034 4750 
Q 2731 4750 3128 4425 
Q 3525 4100 3525 3541 
Q 3525 3141 3298 2862 
Q 3072 2584 2669 2484 
Q 3125 2378 3379 2068 
Q 3634 1759 3634 1313 
Q 3634 634 3220 271 
Q 2806 -91 2034 -91 
Q 1263 -91 848 271 
Q 434 634 434 1313 
Q 434 1759 690 2068 
Q 947 2378 1403 2484 
z
M 1172 3481 
Q 1172 3119 1398 2916 
Q 1625 2713 2034 2713 
Q 2441 2713 2670 2916 
Q 2900 3119 2900 3481 
Q 2900 3844 2670 4047 
Q 2441 4250 2034 4250 
Q 1625 4250 1398 4047 
Q 1172 3844 1172 3481 
z
" transform="scale(0.015625)"/>
       </defs>
       <use xlink:href="#DejaVuSans-34"/>
       <use xlink:href="#DejaVuSans-38" x="63.623047"/>
       <use xlink:href="#DejaVuSans-30" x="127.246094"/>
      </g>
     </g>
    </g>
    <g id="xtick_5">
     <g id="line2d_5">
      <g>
       <use xlink:href="#mc98122ce36" x="347.707539" y="384.48" style="stroke: #000000; stroke-width: 0.8"/>
      </g>
     </g>
     <g id="text_5">
      <!-- 490 -->
      <g transform="translate(338.163789 399.078438) scale(0.1 -0.1)">
       <defs>
        <path id="DejaVuSans-39" d="M 703 97 
L 703 672 
Q 941 559 1184 500 
Q 1428 441 1663 441 
Q 2288 441 2617 861 
Q 2947 1281 2994 2138 
Q 2813 1869 2534 1725 
Q 2256 1581 1919 1581 
Q 1219 1581 811 2004 
Q 403 2428 403 3163 
Q 403 3881 828 4315 
Q 1253 4750 1959 4750 
Q 2769 4750 3195 4129 
Q 3622 3509 3622 2328 
Q 3622 1225 3098 567 
Q 2575 -91 1691 -91 
Q 1453 -91 1209 -44 
Q 966 3 703 97 
z
M 1959 2075 
Q 2384 2075 2632 2365 
Q 2881 2656 2881 3163 
Q 2881 3666 2632 3958 
Q 2384 4250 1959 4250 
Q 1534 4250 1286 3958 
Q 1038 3666 1038 3163 
Q 1038 2656 1286 2365 
Q 1534 2075 1959 2075 
z
" transform="scale(0.015625)"/>
       </defs>
       <use xlink:href="#DejaVuSans-34"/>
       <use xlink:href="#DejaVuSans-39" x="63.623047"/>
       <use xlink:href="#DejaVuSans-30" x="127.246094"/>
      </g>
     </g>
    </g>
    <g id="xtick_6">
     <g id="line2d_6">
      <g>
       <use xlink:href="#mc98122ce36" x="404.175746" y="384.48" style="stroke: #000000; stroke-width: 0.8"/>
      </g>
     </g>
     <g id="text_6">
      <!-- 500 -->
      <g transform="translate(394.631996 399.078438) scale(0.1 -0.1)">
       <use xlink:href="#DejaVuSans-35"/>
       <use xlink:href="#DejaVuSans-30" x="63.623047"/>
       <use xlink:href="#DejaVuSans-30" x="127.246094"/>
      </g>
     </g>
    </g>
   </g>
   <g id="matplotlib.axis_2">
    <g id="ytick_1">
     <g id="line2d_7">
      <defs>
       <path id="me8c6ee358c" d="M 0 0 
L -3.5 0 
" style="stroke: #000000; stroke-width: 0.8"/>
      </defs>
      <g>
       <use xlink:href="#me8c6ee358c" x="108" y="373.887254" style="stroke: #000000; stroke-width: 0.8"/>
      </g>
     </g>
     <g id="text_7">
      <!-- 0.1 -->
      <g transform="translate(85.096875 377.686473) scale(0.1 -0.1)">
       <defs>
        <path id="DejaVuSans-2e" d="M 684 794 
L 1344 794 
L 1344 0 
L 684 0 
L 684 794 
z
" transform="scale(0.015625)"/>
        <path id="DejaVuSans-31" d="M 794 531 
L 1825 531 
L 1825 4091 
L 703 3866 
L 703 4441 
L 1819 4666 
L 2450 4666 
L 2450 531 
L 3481 531 
L 3481 0 
L 794 0 
L 794 531 
z
" transform="scale(0.015625)"/>
       </defs>
       <use xlink:href="#DejaVuSans-30"/>
       <use xlink:href="#DejaVuSans-2e" x="63.623047"/>
       <use xlink:href="#DejaVuSans-31" x="95.410156"/>
      </g>
     </g>
    </g>
    <g id="ytick_2">
     <g id="line2d_8">
      <g>
       <use xlink:href="#me8c6ee358c" x="108" y="331.153118" style="stroke: #000000; stroke-width: 0.8"/>
      </g>
     </g>
     <g id="text_8">
      <!-- 0.2 -->
      <g transform="translate(85.096875 334.952336) scale(0.1 -0.1)">
       <defs>
        <path id="DejaVuSans-32" d="M 1228 531 
L 3431 531 
L 3431 0 
L 469 0 
L 469 531 
Q 828 903 1448 1529 
Q 2069 2156 2228 2338 
Q 2531 2678 2651 2914 
Q 2772 3150 2772 3378 
Q 2772 3750 2511 3984 
Q 2250 4219 1831 4219 
Q 1534 4219 1204 4116 
Q 875 4013 500 3803 
L 500 4441 
Q 881 4594 1212 4672 
Q 1544 4750 1819 4750 
Q 2544 4750 2975 4387 
Q 3406 4025 3406 3419 
Q 3406 3131 3298 2873 
Q 3191 2616 2906 2266 
Q 2828 2175 2409 1742 
Q 1991 1309 1228 531 
z
" transform="scale(0.015625)"/>
       </defs>
       <use xlink:href="#DejaVuSans-30"/>
       <use xlink:href="#DejaVuSans-2e" x="63.623047"/>
       <use xlink:href="#DejaVuSans-32" x="95.410156"/>
      </g>
     </g>
    </g>
    <g id="ytick_3">
     <g id="line2d_9">
      <g>
       <use xlink:href="#me8c6ee358c" x="108" y="288.418981" style="stroke: #000000; stroke-width: 0.8"/>
      </g>
     </g>
     <g id="text_9">
      <!-- 0.3 -->
      <g transform="translate(85.096875 292.218199) scale(0.1 -0.1)">
       <defs>
        <path id="DejaVuSans-33" d="M 2597 2516 
Q 3050 2419 3304 2112 
Q 3559 1806 3559 1356 
Q 3559 666 3084 287 
Q 2609 -91 1734 -91 
Q 1441 -91 1130 -33 
Q 819 25 488 141 
L 488 750 
Q 750 597 1062 519 
Q 1375 441 1716 441 
Q 2309 441 2620 675 
Q 2931 909 2931 1356 
Q 2931 1769 2642 2001 
Q 2353 2234 1838 2234 
L 1294 2234 
L 1294 2753 
L 1863 2753 
Q 2328 2753 2575 2939 
Q 2822 3125 2822 3475 
Q 2822 3834 2567 4026 
Q 2313 4219 1838 4219 
Q 1578 4219 1281 4162 
Q 984 4106 628 3988 
L 628 4550 
Q 988 4650 1302 4700 
Q 1616 4750 1894 4750 
Q 2613 4750 3031 4423 
Q 3450 4097 3450 3541 
Q 3450 3153 3228 2886 
Q 3006 2619 2597 2516 
z
" transform="scale(0.015625)"/>
       </defs>
       <use xlink:href="#DejaVuSans-30"/>
       <use xlink:href="#DejaVuSans-2e" x="63.623047"/>
       <use xlink:href="#DejaVuSans-33" x="95.410156"/>
      </g>
     </g>
    </g>
    <g id="ytick_4">
     <g id="line2d_10">
      <g>
       <use xlink:href="#me8c6ee358c" x="108" y="245.684844" style="stroke: #000000; stroke-width: 0.8"/>
      </g>
     </g>
     <g id="text_10">
      <!-- 0.4 -->
      <g transform="translate(85.096875 249.484063) scale(0.1 -0.1)">
       <use xlink:href="#DejaVuSans-30"/>
       <use xlink:href="#DejaVuSans-2e" x="63.623047"/>
       <use xlink:href="#DejaVuSans-34" x="95.410156"/>
      </g>
     </g>
    </g>
    <g id="ytick_5">
     <g id="line2d_11">
      <g>
       <use xlink:href="#me8c6ee358c" x="108" y="202.950707" style="stroke: #000000; stroke-width: 0.8"/>
      </g>
     </g>
     <g id="text_11">
      <!-- 0.5 -->
      <g transform="translate(85.096875 206.749926) scale(0.1 -0.1)">
       <use xlink:href="#DejaVuSans-30"/>
       <use xlink:href="#DejaVuSans-2e" x="63.623047"/>
       <use xlink:href="#DejaVuSans-35" x="95.410156"/>
      </g>
     </g>
    </g>
    <g id="ytick_6">
     <g id="line2d_12">
      <g>
       <use xlink:href="#me8c6ee358c" x="108" y="160.21657" style="stroke: #000000; stroke-width: 0.8"/>
      </g>
     </g>
     <g id="text_12">
      <!-- 0.6 -->
      <g transform="translate(85.096875 164.015789) scale(0.1 -0.1)">
       <use xlink:href="#DejaVuSans-30"/>
       <use xlink:href="#DejaVuSans-2e" x="63.623047"/>
       <use xlink:href="#DejaVuSans-36" x="95.410156"/>
      </g>
     </g>
    </g>
    <g id="ytick_7">
     <g id="line2d_13">
      <g>
       <use xlink:href="#me8c6ee358c" x="108" y="117.482433" style="stroke: #000000; stroke-width: 0.8"/>
      </g>
     </g>
     <g id="text_13">
      <!-- 0.7 -->
      <g transform="translate(85.096875 121.281652) scale(0.1 -0.1)">
       <use xlink:href="#DejaVuSans-30"/>
       <use xlink:href="#DejaVuSans-2e" x="63.623047"/>
       <use xlink:href="#DejaVuSans-37" x="95.410156"/>
      </g>
     </g>
    </g>
    <g id="ytick_8">
     <g id="line2d_14">
      <g>
       <use xlink:href="#me8c6ee358c" x="108" y="74.748296" style="stroke: #000000; stroke-width: 0.8"/>
      </g>
     </g>
     <g id="text_14">
      <!-- 0.8 -->
      <g transform="translate(85.096875 78.547515) scale(0.1 -0.1)">
       <use xlink:href="#DejaVuSans-30"/>
       <use xlink:href="#DejaVuSans-2e" x="63.623047"/>
       <use xlink:href="#DejaVuSans-38" x="95.410156"/>
      </g>
     </g>
    </g>
   </g>
   <g id="line2d_15">
    <path d="M 121.834711 308.046342 
L 127.481531 303.779766 
L 133.128352 299.119609 
L 138.775173 294.677822 
L 144.421994 290.353555 
L 150.068814 285.601946 
L 155.715635 281.690491 
L 161.362456 277.376052 
L 167.009276 273.641089 
L 172.656097 271.339428 
L 178.302918 267.073707 
L 183.949739 262.407139 
L 189.596559 257.701256 
L 195.24338 254.59192 
L 200.890201 252.773155 
L 206.537021 249.479208 
L 212.183842 245.748518 
L 217.830663 244.596405 
L 223.477484 243.992572 
L 229.124304 244.088297 
L 234.771125 243.557111 
L 240.417946 242.580636 
L 246.064766 240.851186 
L 251.711587 238.964474 
L 257.358408 237.291859 
L 263.005229 234.627386 
L 268.652049 233.243655 
L 274.29887 231.409933 
L 279.945691 229.841163 
L 285.592511 226.700631 
L 291.239332 224.842978 
L 296.886153 220.987932 
L 302.532974 219.380273 
L 308.179794 216.191025 
L 313.826615 217.067929 
L 319.473436 217.173482 
L 325.120256 214.667125 
L 330.767077 214.707295 
L 336.413898 213.696633 
L 342.060719 209.707401 
L 347.707539 208.527939 
L 353.35436 206.386104 
L 359.001181 204.422043 
L 364.648001 201.957993 
L 370.294822 200.079828 
L 375.941643 200.381103 
L 381.588463 196.910664 
L 387.235284 194.556868 
L 392.882105 194.044486 
L 398.528926 191.230443 
" clip-path="url(#pf3a615c8a8)" style="fill: none; stroke: #1f77b4; stroke-width: 1.5; stroke-linecap: square"/>
   </g>
   <g id="line2d_16">
    <path d="M 121.834711 361.753324 
L 127.481531 359.464056 
L 133.128352 356.666252 
L 138.775173 353.503499 
L 144.421994 349.487344 
L 150.068814 344.301129 
L 155.715635 339.231151 
L 161.362456 333.705628 
L 167.009276 327.977544 
L 172.656097 319.434563 
L 178.302918 305.148541 
L 183.949739 294.655601 
L 189.596559 285.197254 
L 195.24338 277.726472 
L 200.890201 272.190265 
L 206.537021 264.334449 
L 212.183842 255.407287 
L 217.830663 250.669781 
L 223.477484 246.81388 
L 229.124304 244.157953 
L 234.771125 241.122547 
L 240.417946 237.02648 
L 246.064766 232.568455 
L 251.711587 226.063892 
L 257.358408 220.388799 
L 263.005229 213.398776 
L 268.652049 209.367665 
L 274.29887 207.746332 
L 279.945691 206.59892 
L 285.592511 205.284418 
L 291.239332 206.034402 
L 296.886153 200.392642 
L 302.532974 197.086301 
L 308.179794 191.465053 
L 313.826615 189.327064 
L 319.473436 185.149802 
L 325.120256 180.64306 
L 330.767077 179.271722 
L 336.413898 179.180698 
L 342.060719 172.38127 
L 347.707539 171.178304 
L 353.35436 168.674083 
L 359.001181 165.540816 
L 364.648001 162.010549 
L 370.294822 158.961041 
L 375.941643 158.570451 
L 381.588463 152.417163 
L 387.235284 148.652285 
L 392.882105 147.942471 
L 398.528926 143.847686 
" clip-path="url(#pf3a615c8a8)" style="fill: none; stroke: #ff7f0e; stroke-width: 1.5; stroke-linecap: square"/>
   </g>
   <g id="line2d_17">
    <path d="M 121.834711 311.175763 
L 127.481531 309.181788 
L 133.128352 306.753635 
L 138.775173 304.517357 
L 144.421994 302.205013 
L 150.068814 299.594385 
L 155.715635 297.717074 
L 161.362456 295.132514 
L 167.009276 292.947945 
L 172.656097 291.927026 
L 178.302918 289.447591 
L 183.949739 288.655301 
L 189.596559 286.327145 
L 195.24338 285.669894 
L 200.890201 284.184028 
L 206.537021 282.139627 
L 212.183842 279.695234 
L 217.830663 278.668333 
L 223.477484 276.670939 
L 229.124304 274.966702 
L 234.771125 272.927856 
L 240.417946 271.354813 
L 246.064766 268.843755 
L 251.711587 267.245498 
L 257.358408 265.774162 
L 263.005229 262.94388 
L 268.652049 261.334085 
L 274.29887 258.998237 
L 279.945691 257.499978 
L 285.592511 254.417137 
L 291.239332 253.086824 
L 296.886153 249.266392 
L 302.532974 247.542069 
L 308.179794 244.382307 
L 313.826615 244.457519 
L 319.473436 243.819926 
L 325.120256 240.715718 
L 330.767077 240.652472 
L 336.413898 239.798644 
L 342.060719 235.388481 
L 347.707539 234.291496 
L 353.35436 232.56931 
L 359.001181 230.662513 
L 364.648001 228.252735 
L 370.294822 226.323716 
L 375.941643 226.456619 
L 381.588463 223.003701 
L 387.235284 220.535804 
L 392.882105 220.186666 
L 398.528926 217.386726 
" clip-path="url(#pf3a615c8a8)" style="fill: none; stroke: #2ca02c; stroke-width: 1.5; stroke-linecap: square"/>
   </g>
   <g id="line2d_18">
    <path d="M 121.834711 335.755584 
L 127.481531 330.758682 
L 133.128352 325.38059 
L 138.775173 319.996944 
L 144.421994 314.360311 
L 150.068814 308.058308 
L 155.715635 302.619107 
L 161.362456 296.829486 
L 167.009276 291.753525 
L 172.656097 287.363875 
L 178.302918 279.450795 
L 183.949739 271.852665 
L 189.596559 265.031015 
L 195.24338 260.167016 
L 200.890201 257.042723 
L 206.537021 251.95266 
L 212.183842 246.154492 
L 217.830663 243.850695 
L 223.477484 242.144748 
L 229.124304 241.525958 
L 234.771125 240.385384 
L 240.417946 238.601233 
L 246.064766 236.158977 
L 251.711587 232.667598 
L 257.358408 229.487751 
L 263.005229 225.491682 
L 268.652049 223.318224 
L 274.29887 221.564415 
L 279.945691 219.498219 
L 285.592511 215.367538 
L 291.239332 212.859899 
L 296.886153 207.856586 
L 302.532974 205.338263 
L 308.179794 200.798189 
L 313.826615 200.540929 
L 319.473436 199.520438 
L 325.120256 195.926924 
L 330.767077 195.472233 
L 336.413898 193.920557 
L 342.060719 188.858698 
L 347.707539 187.007455 
L 353.35436 184.163498 
L 359.001181 181.381079 
L 364.648001 177.980724 
L 370.294822 175.200868 
L 375.941643 174.857713 
L 381.588463 170.459088 
L 387.235284 167.272403 
L 392.882105 166.243793 
L 398.528926 162.421224 
" clip-path="url(#pf3a615c8a8)" style="fill: none; stroke: #d62728; stroke-width: 1.5; stroke-linecap: square"/>
   </g>
   <g id="line2d_19">
    <path d="M 121.834711 340.002075 
L 127.481531 337.170511 
L 133.128352 334.292367 
L 138.775173 331.644133 
L 144.421994 328.76898 
L 150.068814 325.277174 
L 155.715635 322.482789 
L 161.362456 319.338838 
L 167.009276 316.467104 
L 172.656097 313.964593 
L 178.302918 309.575797 
L 183.949739 307.139097 
L 189.596559 303.624641 
L 195.24338 301.713571 
L 200.890201 299.229435 
L 206.537021 295.927369 
L 212.183842 292.330436 
L 217.830663 290.652694 
L 223.477484 288.005314 
L 229.124304 285.923734 
L 234.771125 283.244304 
L 240.417946 280.749913 
L 246.064766 277.232038 
L 251.711587 274.280392 
L 257.358408 271.544979 
L 263.005229 267.074134 
L 268.652049 264.157957 
L 274.29887 260.933239 
L 279.945691 258.630296 
L 285.592511 254.634654 
L 291.239332 252.744951 
L 296.886153 247.548907 
L 302.532974 244.829306 
L 308.179794 240.57555 
L 313.826615 239.320876 
L 319.473436 237.006395 
L 325.120256 232.437689 
L 330.767077 231.662492 
L 336.413898 230.429612 
L 342.060719 224.845969 
L 347.707539 223.103271 
L 353.35436 220.724262 
L 359.001181 217.557662 
L 364.648001 214.125256 
L 370.294822 211.023185 
L 375.941643 210.589007 
L 381.588463 205.714751 
L 387.235284 201.988762 
L 392.882105 200.755454 
L 398.528926 196.78118 
" clip-path="url(#pf3a615c8a8)" style="fill: none; stroke: #9467bd; stroke-width: 1.5; stroke-linecap: square"/>
   </g>
   <g id="line2d_20">
    <path d="M 121.834711 341.157606 
L 127.481531 339.593964 
L 133.128352 337.234613 
L 138.775173 334.548345 
L 144.421994 331.100555 
L 150.068814 326.376723 
L 155.715635 321.598192 
L 161.362456 316.124804 
L 167.009276 310.156981 
L 172.656097 300.485819 
L 178.302918 284.829313 
L 183.949739 273.676986 
L 189.596559 263.732325 
L 195.24338 255.941891 
L 200.890201 249.97236 
L 206.537021 241.28451 
L 212.183842 231.364635 
L 217.830663 226.568582 
L 223.477484 222.554992 
L 229.124304 220.051199 
L 234.771125 217.02434 
L 240.417946 212.750072 
L 246.064766 208.123674 
L 251.711587 201.234504 
L 257.358408 195.517531 
L 263.005229 188.618105 
L 268.652049 184.834852 
L 274.29887 183.470778 
L 279.945691 182.621651 
L 285.592511 181.650304 
L 291.239332 183.596416 
L 296.886153 179.415308 
L 302.532974 177.255953 
L 308.179794 172.835533 
L 313.826615 170.362082 
L 319.473436 165.815597 
L 325.120256 162.113966 
L 330.767077 161.351161 
L 336.413898 162.94429 
L 342.060719 157.720469 
L 347.707539 158.073881 
L 353.35436 156.818352 
L 359.001181 154.212851 
L 364.648001 151.158643 
L 370.294822 148.899716 
L 375.941643 149.298853 
L 381.588463 144.118193 
L 387.235284 140.90074 
L 392.882105 140.617413 
L 398.528926 136.740145 
" clip-path="url(#pf3a615c8a8)" style="fill: none; stroke: #8c564b; stroke-width: 1.5; stroke-linecap: square"/>
   </g>
   <g id="line2d_21">
    <path d="M 121.834711 338.25254 
L 127.481531 336.241044 
L 133.128352 333.80007 
L 138.775173 331.351831 
L 144.421994 328.807868 
L 150.068814 325.792975 
L 155.715635 323.393453 
L 161.362456 320.551633 
L 167.009276 318.18758 
L 172.656097 316.568384 
L 178.302918 313.432553 
L 183.949739 310.055702 
L 189.596559 306.487401 
L 195.24338 304.093435 
L 200.890201 302.676798 
L 206.537021 299.879422 
L 212.183842 296.612824 
L 217.830663 295.639341 
L 223.477484 294.971833 
L 229.124304 294.931236 
L 234.771125 294.36159 
L 240.417946 293.350073 
L 246.064766 291.723612 
L 251.711587 289.951854 
L 257.358408 288.317701 
L 263.005229 285.860915 
L 268.652049 284.427185 
L 274.29887 282.775938 
L 279.945691 281.289217 
L 285.592511 278.347399 
L 291.239332 276.887174 
L 296.886153 273.480836 
L 302.532974 271.900955 
L 308.179794 268.934351 
L 313.826615 269.020247 
L 319.473436 268.399747 
L 325.120256 265.821169 
L 330.767077 265.423742 
L 336.413898 264.328466 
L 342.060719 260.817856 
L 347.707539 259.570447 
L 353.35436 257.662795 
L 359.001181 255.68976 
L 364.648001 253.400065 
L 370.294822 251.595402 
L 375.941643 251.391133 
L 381.588463 248.32966 
L 387.235284 246.049793 
L 392.882105 245.54083 
L 398.528926 243.020798 
" clip-path="url(#pf3a615c8a8)" style="fill: none; stroke: #e377c2; stroke-width: 1.5; stroke-linecap: square"/>
   </g>
   <g id="line2d_22">
    <path d="M 121.834711 327.980535 
L 127.481531 324.250272 
L 133.128352 320.420439 
L 138.775173 316.645305 
L 144.421994 312.861198 
L 150.068814 308.459154 
L 155.715635 304.867777 
L 161.362456 300.650773 
L 167.009276 296.810256 
L 172.656097 293.631263 
L 178.302918 288.370691 
L 183.949739 285.426309 
L 189.596559 280.941361 
L 195.24338 278.457653 
L 200.890201 275.485494 
L 206.537021 271.654806 
L 212.183842 267.583098 
L 217.830663 265.525876 
L 223.477484 262.087488 
L 229.124304 259.680274 
L 234.771125 256.573075 
L 240.417946 253.838517 
L 246.064766 249.733476 
L 251.711587 246.172013 
L 257.358408 243.016097 
L 263.005229 238.054236 
L 268.652049 234.882509 
L 274.29887 231.333439 
L 279.945691 228.74375 
L 285.592511 224.17077 
L 291.239332 222.219957 
L 296.886153 216.493582 
L 302.532974 213.650053 
L 308.179794 208.626228 
L 313.826615 207.36728 
L 319.473436 204.901093 
L 325.120256 199.929831 
L 330.767077 199.186684 
L 336.413898 198.082007 
L 342.060719 191.554367 
L 347.707539 189.634323 
L 353.35436 187.171127 
L 359.001181 183.838292 
L 364.648001 180.128969 
L 370.294822 176.959378 
L 375.941643 176.592719 
L 381.588463 171.318044 
L 387.235284 167.121979 
L 392.882105 166.028413 
L 398.528926 161.664403 
" clip-path="url(#pf3a615c8a8)" style="fill: none; stroke: #7f7f7f; stroke-width: 1.5; stroke-linecap: square"/>
   </g>
   <g id="line2d_23">
    <path d="M 121.834711 331.788147 
L 127.481531 327.279268 
L 133.128352 322.426807 
L 138.775173 317.390161 
L 144.421994 312.192408 
L 150.068814 306.194245 
L 155.715635 301.257597 
L 161.362456 295.76968 
L 167.009276 290.849698 
L 172.656097 286.607053 
L 178.302918 280.598634 
L 183.949739 275.635491 
L 189.596559 269.617243 
L 195.24338 265.189131 
L 200.890201 262.159281 
L 206.537021 257.365793 
L 212.183842 251.932575 
L 217.830663 249.77792 
L 223.477484 247.988214 
L 229.124304 247.121993 
L 234.771125 245.255366 
L 240.417946 242.900288 
L 246.064766 239.470873 
L 251.711587 236.42051 
L 257.358408 233.799198 
L 263.005229 229.972784 
L 268.652049 227.388651 
L 274.29887 224.258802 
L 279.945691 221.677233 
L 285.592511 217.308522 
L 291.239332 215.191046 
L 296.886153 210.171067 
L 302.532974 207.834364 
L 308.179794 203.60283 
L 313.826615 203.677615 
L 319.473436 202.710541 
L 325.120256 199.114464 
L 330.767077 198.591825 
L 336.413898 197.158522 
L 342.060719 192.041109 
L 347.707539 190.442425 
L 353.35436 187.89077 
L 359.001181 185.169887 
L 364.648001 181.836197 
L 370.294822 179.26873 
L 375.941643 179.025573 
L 381.588463 174.67011 
L 387.235284 171.285139 
L 392.882105 170.637289 
L 398.528926 167.186935 
" clip-path="url(#pf3a615c8a8)" style="fill: none; stroke: #bcbd22; stroke-width: 1.5; stroke-linecap: square"/>
   </g>
   <g id="line2d_24">
    <path d="M 121.834711 233.37143 
L 127.481531 232.86674 
L 133.128352 231.005241 
L 138.775173 229.543733 
L 144.421994 227.219423 
L 150.068814 222.810542 
L 155.715635 218.926009 
L 161.362456 213.767144 
L 167.009276 208.42495 
L 172.656097 200.21615 
L 178.302918 179.492657 
L 183.949739 166.050207 
L 189.596559 154.104734 
L 195.24338 146.080118 
L 200.890201 141.285775 
L 206.537021 132.102636 
L 212.183842 121.248165 
L 217.830663 118.128573 
L 223.477484 115.89486 
L 229.124304 115.997849 
L 234.771125 114.855993 
L 240.417946 112.328269 
L 246.064766 109.520636 
L 251.711587 102.870777 
L 257.358408 97.599521 
L 263.005229 90.644968 
L 268.652049 88.396298 
L 274.29887 89.950966 
L 279.945691 91.976991 
L 285.592511 93.096625 
L 291.239332 97.0115 
L 296.886153 91.643665 
L 302.532974 90.243267 
L 308.179794 85.431831 
L 313.826615 87.012566 
L 319.473436 85.270723 
L 325.120256 81.619946 
L 330.767077 82.667787 
L 336.413898 84.822015 
L 342.060719 78.254632 
L 347.707539 79.281961 
L 353.35436 79.167006 
L 359.001181 77.614048 
L 364.648001 75.435889 
L 370.294822 74.191043 
L 375.941643 76.396552 
L 381.588463 71.130424 
L 387.235284 68.512531 
L 392.882105 69.977885 
L 398.528926 66.96 
" clip-path="url(#pf3a615c8a8)" style="fill: none; stroke: #17becf; stroke-width: 1.5; stroke-linecap: square"/>
   </g>
   <g id="line2d_25">
    <path d="M 121.834711 264.71521 
L 127.481531 260.213596 
L 133.128352 255.621385 
L 138.775173 251.254811 
L 144.421994 247.142505 
L 150.068814 242.371239 
L 155.715635 238.592259 
L 161.362456 234.208591 
L 167.009276 230.451406 
L 172.656097 228.507858 
L 178.302918 223.76095 
L 183.949739 222.017824 
L 189.596559 217.938424 
L 195.24338 216.732039 
L 200.890201 214.717979 
L 206.537021 211.747956 
L 212.183842 208.648022 
L 217.830663 207.683513 
L 223.477484 204.672038 
L 229.124304 203.168651 
L 234.771125 200.797334 
L 240.417946 199.355484 
L 246.064766 196.347856 
L 251.711587 194.271404 
L 257.358408 192.696224 
L 263.005229 189.105274 
L 268.652049 187.545905 
L 274.29887 185.49253 
L 279.945691 184.362212 
L 285.592511 180.787502 
L 291.239332 180.042218 
L 296.886153 174.955147 
L 302.532974 173.479537 
L 308.179794 169.668079 
L 313.826615 170.320629 
L 319.473436 169.635601 
L 325.120256 166.042088 
L 330.767077 166.951897 
L 336.413898 167.031383 
L 342.060719 161.603293 
L 347.707539 160.93835 
L 353.35436 159.658035 
L 359.001181 157.557652 
L 364.648001 155.188044 
L 370.294822 153.397057 
L 375.941643 154.661987 
L 381.588463 150.47276 
L 387.235284 147.486071 
L 392.882105 147.894182 
L 398.528926 145.042106 
" clip-path="url(#pf3a615c8a8)" style="fill: none; stroke: #1f77b4; stroke-width: 1.5; stroke-linecap: square"/>
   </g>
   <g id="line2d_26">
    <path d="M 121.834711 344.239592 
L 127.481531 342.405871 
L 133.128352 340.169166 
L 138.775173 337.920923 
L 144.421994 335.534649 
L 150.068814 332.579583 
L 155.715635 330.201856 
L 161.362456 327.516015 
L 167.009276 324.979744 
L 172.656097 323.196021 
L 178.302918 319.961902 
L 183.949739 318.17647 
L 189.596559 315.017135 
L 195.24338 312.791114 
L 200.890201 311.320205 
L 206.537021 308.454453 
L 212.183842 305.032304 
L 217.830663 304.016086 
L 223.477484 302.909272 
L 229.124304 302.159288 
L 234.771125 300.483255 
L 240.417946 298.65167 
L 246.064766 295.902155 
L 251.711587 293.439814 
L 257.358408 291.127898 
L 263.005229 287.5737 
L 268.652049 284.922901 
L 274.29887 281.841342 
L 279.945691 279.318746 
L 285.592511 275.439769 
L 291.239332 272.845379 
L 296.886153 267.891211 
L 302.532974 264.860933 
L 308.179794 260.308893 
L 313.826615 258.802515 
L 319.473436 256.737601 
L 325.120256 252.631705 
L 330.767077 251.139002 
L 336.413898 249.024517 
L 342.060719 243.837447 
L 347.707539 241.621255 
L 353.35436 238.681574 
L 359.001181 235.60087 
L 364.648001 232.023595 
L 370.294822 228.894174 
L 375.941643 227.621552 
L 381.588463 223.133613 
L 387.235284 219.61061 
L 392.882105 218.298245 
L 398.528926 214.612426 
" clip-path="url(#pf3a615c8a8)" style="fill: none; stroke: #ff7f0e; stroke-width: 1.5; stroke-linecap: square"/>
   </g>
   <g id="line2d_27">
    <path d="M 121.834711 336.769238 
L 127.481531 335.262005 
L 133.128352 333.333841 
L 138.775173 331.710798 
L 144.421994 330.068098 
L 150.068814 327.969424 
L 155.715635 326.26946 
L 161.362456 324.18318 
L 167.009276 322.368688 
L 172.656097 321.32683 
L 178.302918 319.116621 
L 183.949739 318.143992 
L 189.596559 316.017541 
L 195.24338 315.067561 
L 200.890201 313.423152 
L 206.537021 311.313795 
L 212.183842 308.996322 
L 217.830663 307.538661 
L 223.477484 305.335716 
L 229.124304 303.449859 
L 234.771125 300.959741 
L 240.417946 298.95551 
L 246.064766 295.930787 
L 251.711587 293.570581 
L 257.358408 291.399687 
L 263.005229 287.902752 
L 268.652049 285.372037 
L 274.29887 282.126379 
L 279.945691 279.4837 
L 285.592511 275.600022 
L 291.239332 273.055204 
L 296.886153 268.497608 
L 302.532974 265.786127 
L 308.179794 261.733222 
L 313.826615 260.264449 
L 319.473436 258.108512 
L 325.120256 253.865867 
L 330.767077 252.47658 
L 336.413898 250.229192 
L 342.060719 244.9605 
L 347.707539 242.521236 
L 353.35436 239.125581 
L 359.001181 235.732918 
L 364.648001 231.831291 
L 370.294822 228.487773 
L 375.941643 227.192928 
L 381.588463 222.562257 
L 387.235284 218.669605 
L 392.882105 216.986734 
L 398.528926 212.688535 
" clip-path="url(#pf3a615c8a8)" style="fill: none; stroke: #2ca02c; stroke-width: 1.5; stroke-linecap: square"/>
   </g>
   <g id="line2d_28">
    <path d="M 121.834711 328.004039 
L 127.481531 324.388304 
L 133.128352 320.535394 
L 138.775173 316.854703 
L 144.421994 313.169738 
L 150.068814 309.033074 
L 155.715635 305.529729 
L 161.362456 301.767843 
L 167.009276 298.369625 
L 172.656097 295.876088 
L 178.302918 291.443276 
L 183.949739 286.804485 
L 189.596559 281.746045 
L 195.24338 278.137147 
L 200.890201 275.861555 
L 206.537021 271.839418 
L 212.183842 267.060032 
L 217.830663 265.210071 
L 223.477484 263.955824 
L 229.124304 263.50968 
L 234.771125 262.0486 
L 240.417946 260.167443 
L 246.064766 257.233317 
L 251.711587 254.041077 
L 257.358408 251.089003 
L 263.005229 246.901485 
L 268.652049 244.292138 
L 274.29887 241.188358 
L 279.945691 238.463629 
L 285.592511 234.275257 
L 291.239332 231.576596 
L 296.886153 226.323716 
L 302.532974 223.755822 
L 308.179794 219.40976 
L 313.826615 218.557214 
L 319.473436 216.877335 
L 325.120256 212.658621 
L 330.767077 211.621891 
L 336.413898 210.079616 
L 342.060719 204.466487 
L 347.707539 202.566527 
L 353.35436 199.485396 
L 359.001181 196.182474 
L 364.648001 192.271446 
L 370.294822 188.910406 
L 375.941643 188.315975 
L 381.588463 183.485308 
L 387.235284 180.0388 
L 392.882105 178.770878 
L 398.528926 174.611137 
" clip-path="url(#pf3a615c8a8)" style="fill: none; stroke: #d62728; stroke-width: 1.5; stroke-linecap: square"/>
   </g>
   <g id="line2d_29">
    <path d="M 121.834711 336.330358 
L 127.481531 333.238116 
L 133.128352 329.639474 
L 138.775173 325.715199 
L 144.421994 321.296489 
L 150.068814 315.66242 
L 155.715635 310.659535 
L 161.362456 305.242556 
L 167.009276 299.861473 
L 172.656097 293.935958 
L 178.302918 281.219988 
L 183.949739 272.017619 
L 189.596559 264.12206 
L 195.24338 258.206373 
L 200.890201 254.027829 
L 206.537021 247.786936 
L 212.183842 240.703753 
L 217.830663 237.104684 
L 223.477484 234.39534 
L 229.124304 232.862893 
L 234.771125 230.933875 
L 240.417946 228.219402 
L 246.064766 225.212201 
L 251.711587 220.556744 
L 257.358408 216.516659 
L 263.005229 211.521038 
L 268.652049 208.906564 
L 274.29887 208.063419 
L 279.945691 207.348904 
L 285.592511 205.392963 
L 291.239332 203.435312 
L 296.886153 197.697827 
L 302.532974 194.985919 
L 308.179794 190.259096 
L 313.826615 189.811242 
L 319.473436 188.145038 
L 325.120256 183.817352 
L 330.767077 182.89985 
L 336.413898 181.415693 
L 342.060719 175.549151 
L 347.707539 173.771838 
L 353.35436 170.844123 
L 359.001181 167.696326 
L 364.648001 163.902389 
L 370.294822 160.737499 
L 375.941643 160.274689 
L 381.588463 155.113687 
L 387.235284 151.827432 
L 392.882105 150.807368 
L 398.528926 146.898476 
" clip-path="url(#pf3a615c8a8)" style="fill: none; stroke: #9467bd; stroke-width: 1.5; stroke-linecap: square"/>
   </g>
   <g id="line2d_30">
    <path d="M 121.834711 369.36 
L 127.481531 368.611725 
L 133.128352 367.593371 
L 138.775173 366.660057 
L 144.421994 365.571619 
L 150.068814 364.175067 
L 155.715635 363.044749 
L 161.362456 361.72982 
L 167.009276 360.487539 
L 172.656097 359.577301 
L 178.302918 357.772639 
L 183.949739 356.958981 
L 189.596559 355.505593 
L 195.24338 354.775266 
L 200.890201 353.638111 
L 206.537021 352.154382 
L 212.183842 350.357839 
L 217.830663 349.340766 
L 223.477484 347.845926 
L 229.124304 346.550227 
L 234.771125 344.913937 
L 240.417946 343.46354 
L 246.064766 341.401618 
L 251.711587 339.632852 
L 257.358408 337.997417 
L 263.005229 335.479094 
L 268.652049 333.659047 
L 274.29887 331.471487 
L 279.945691 329.704858 
L 285.592511 327.127135 
L 291.239332 325.322899 
L 296.886153 322.14989 
L 302.532974 320.140958 
L 308.179794 317.272643 
L 313.826615 316.147453 
L 319.473436 314.77996 
L 325.120256 311.978738 
L 330.767077 310.939016 
L 336.413898 309.396741 
L 342.060719 305.973309 
L 347.707539 304.279756 
L 353.35436 302.147322 
L 359.001181 299.975573 
L 364.648001 297.436311 
L 370.294822 295.097472 
L 375.941643 294.1445 
L 381.588463 291.174478 
L 387.235284 288.793759 
L 392.882105 287.659595 
L 398.528926 284.962644 
" clip-path="url(#pf3a615c8a8)" style="fill: none; stroke: #8c564b; stroke-width: 1.5; stroke-linecap: square"/>
   </g>
   <g id="patch_3">
    <path d="M 108 384.48 
L 108 51.84 
" style="fill: none; stroke: #000000; stroke-width: 0.8; stroke-linejoin: miter; stroke-linecap: square"/>
   </g>
   <g id="patch_4">
    <path d="M 412.363636 384.48 
L 412.363636 51.84 
" style="fill: none; stroke: #000000; stroke-width: 0.8; stroke-linejoin: miter; stroke-linecap: square"/>
   </g>
   <g id="patch_5">
    <path d="M 108 384.48 
L 412.363636 384.48 
" style="fill: none; stroke: #000000; stroke-width: 0.8; stroke-linejoin: miter; stroke-linecap: square"/>
   </g>
   <g id="patch_6">
    <path d="M 108 51.84 
L 412.363636 51.84 
" style="fill: none; stroke: #000000; stroke-width: 0.8; stroke-linejoin: miter; stroke-linecap: square"/>
   </g>
  </g>
  <g id="axes_2">
   <g id="patch_7">
    <path d="M 473.236364 384.48 
L 777.6 384.48 
L 777.6 51.84 
L 473.236364 51.84 
z
" style="fill: #ffffff"/>
   </g>
   <g id="PathCollection_1">
    <defs>
     <path id="m9b1776cd17" d="M 0 1 
C 0.265203 1 0.51958 0.894634 0.707107 0.707107 
C 0.894634 0.51958 1 0.265203 1 0 
C 1 -0.265203 0.894634 -0.51958 0.707107 -0.707107 
C 0.51958 -0.894634 0.265203 -1 0 -1 
C -0.265203 -1 -0.51958 -0.894634 -0.707107 -0.707107 
C -0.894634 -0.51958 -1 -0.265203 -1 0 
C -1 0.265203 -0.894634 0.51958 -0.707107 0.707107 
C -0.51958 0.894634 -0.265203 1 0 1 
z
" style="stroke: #1f77b4"/>
    </defs>
    <g clip-path="url(#pcbc5435843)">
     <use xlink:href="#m9b1776cd17" x="487.071074" y="328.948266" style="fill: #1f77b4; stroke: #1f77b4"/>
     <use xlink:href="#m9b1776cd17" x="492.717895" y="328.948262" style="fill: #1f77b4; stroke: #1f77b4"/>
     <use xlink:href="#m9b1776cd17" x="498.364716" y="328.948248" style="fill: #1f77b4; stroke: #1f77b4"/>
     <use xlink:href="#m9b1776cd17" x="504.011537" y="328.948189" style="fill: #1f77b4; stroke: #1f77b4"/>
     <use xlink:href="#m9b1776cd17" x="509.658357" y="328.947962" style="fill: #1f77b4; stroke: #1f77b4"/>
     <use xlink:href="#m9b1776cd17" x="515.305178" y="328.947149" style="fill: #1f77b4; stroke: #1f77b4"/>
     <use xlink:href="#m9b1776cd17" x="520.951999" y="328.944417" style="fill: #1f77b4; stroke: #1f77b4"/>
     <use xlink:href="#m9b1776cd17" x="526.598819" y="328.935847" style="fill: #1f77b4; stroke: #1f77b4"/>
     <use xlink:href="#m9b1776cd17" x="532.24564" y="328.91072" style="fill: #1f77b4; stroke: #1f77b4"/>
     <use xlink:href="#m9b1776cd17" x="537.892461" y="328.841909" style="fill: #1f77b4; stroke: #1f77b4"/>
     <use xlink:href="#m9b1776cd17" x="543.539281" y="328.665968" style="fill: #1f77b4; stroke: #1f77b4"/>
     <use xlink:href="#m9b1776cd17" x="549.186102" y="328.246189" style="fill: #1f77b4; stroke: #1f77b4"/>
     <use xlink:href="#m9b1776cd17" x="554.832923" y="327.312209" style="fill: #1f77b4; stroke: #1f77b4"/>
     <use xlink:href="#m9b1776cd17" x="560.479744" y="325.37595" style="fill: #1f77b4; stroke: #1f77b4"/>
     <use xlink:href="#m9b1776cd17" x="566.126564" y="321.639592" style="fill: #1f77b4; stroke: #1f77b4"/>
     <use xlink:href="#m9b1776cd17" x="571.773385" y="314.937411" style="fill: #1f77b4; stroke: #1f77b4"/>
     <use xlink:href="#m9b1776cd17" x="577.420206" y="303.781461" style="fill: #1f77b4; stroke: #1f77b4"/>
     <use xlink:href="#m9b1776cd17" x="583.067026" y="286.590903" style="fill: #1f77b4; stroke: #1f77b4"/>
     <use xlink:href="#m9b1776cd17" x="588.713847" y="262.149699" style="fill: #1f77b4; stroke: #1f77b4"/>
     <use xlink:href="#m9b1776cd17" x="594.360668" y="230.242443" style="fill: #1f77b4; stroke: #1f77b4"/>
     <use xlink:href="#m9b1776cd17" x="600.007489" y="192.283741" style="fill: #1f77b4; stroke: #1f77b4"/>
     <use xlink:href="#m9b1776cd17" x="605.654309" y="151.649295" style="fill: #1f77b4; stroke: #1f77b4"/>
     <use xlink:href="#m9b1776cd17" x="611.30113" y="113.425066" style="fill: #1f77b4; stroke: #1f77b4"/>
     <use xlink:href="#m9b1776cd17" x="616.947951" y="83.466502" style="fill: #1f77b4; stroke: #1f77b4"/>
     <use xlink:href="#m9b1776cd17" x="622.594771" y="66.96" style="fill: #1f77b4; stroke: #1f77b4"/>
     <use xlink:href="#m9b1776cd17" x="628.241592" y="66.96" style="fill: #1f77b4; stroke: #1f77b4"/>
     <use xlink:href="#m9b1776cd17" x="633.888413" y="83.466502" style="fill: #1f77b4; stroke: #1f77b4"/>
     <use xlink:href="#m9b1776cd17" x="639.535234" y="113.425066" style="fill: #1f77b4; stroke: #1f77b4"/>
     <use xlink:href="#m9b1776cd17" x="645.182054" y="151.649295" style="fill: #1f77b4; stroke: #1f77b4"/>
     <use xlink:href="#m9b1776cd17" x="650.828875" y="192.283741" style="fill: #1f77b4; stroke: #1f77b4"/>
     <use xlink:href="#m9b1776cd17" x="656.475696" y="230.242443" style="fill: #1f77b4; stroke: #1f77b4"/>
     <use xlink:href="#m9b1776cd17" x="662.122516" y="262.149699" style="fill: #1f77b4; stroke: #1f77b4"/>
     <use xlink:href="#m9b1776cd17" x="667.769337" y="286.590903" style="fill: #1f77b4; stroke: #1f77b4"/>
     <use xlink:href="#m9b1776cd17" x="673.416158" y="303.781461" style="fill: #1f77b4; stroke: #1f77b4"/>
     <use xlink:href="#m9b1776cd17" x="679.062979" y="314.937411" style="fill: #1f77b4; stroke: #1f77b4"/>
     <use xlink:href="#m9b1776cd17" x="684.709799" y="321.639592" style="fill: #1f77b4; stroke: #1f77b4"/>
     <use xlink:href="#m9b1776cd17" x="690.35662" y="325.37595" style="fill: #1f77b4; stroke: #1f77b4"/>
     <use xlink:href="#m9b1776cd17" x="696.003441" y="327.312209" style="fill: #1f77b4; stroke: #1f77b4"/>
     <use xlink:href="#m9b1776cd17" x="701.650261" y="328.246189" style="fill: #1f77b4; stroke: #1f77b4"/>
     <use xlink:href="#m9b1776cd17" x="707.297082" y="328.665968" style="fill: #1f77b4; stroke: #1f77b4"/>
     <use xlink:href="#m9b1776cd17" x="712.943903" y="328.841909" style="fill: #1f77b4; stroke: #1f77b4"/>
     <use xlink:href="#m9b1776cd17" x="718.590724" y="328.91072" style="fill: #1f77b4; stroke: #1f77b4"/>
     <use xlink:href="#m9b1776cd17" x="724.237544" y="328.935847" style="fill: #1f77b4; stroke: #1f77b4"/>
     <use xlink:href="#m9b1776cd17" x="729.884365" y="328.944417" style="fill: #1f77b4; stroke: #1f77b4"/>
     <use xlink:href="#m9b1776cd17" x="735.531186" y="328.947149" style="fill: #1f77b4; stroke: #1f77b4"/>
     <use xlink:href="#m9b1776cd17" x="741.178006" y="328.947962" style="fill: #1f77b4; stroke: #1f77b4"/>
     <use xlink:href="#m9b1776cd17" x="746.824827" y="328.948189" style="fill: #1f77b4; stroke: #1f77b4"/>
     <use xlink:href="#m9b1776cd17" x="752.471648" y="328.948248" style="fill: #1f77b4; stroke: #1f77b4"/>
     <use xlink:href="#m9b1776cd17" x="758.118469" y="328.948262" style="fill: #1f77b4; stroke: #1f77b4"/>
     <use xlink:href="#m9b1776cd17" x="763.765289" y="328.948266" style="fill: #1f77b4; stroke: #1f77b4"/>
    </g>
   </g>
   <g id="matplotlib.axis_3">
    <g id="xtick_7">
     <g id="line2d_31">
      <g>
       <use xlink:href="#mc98122ce36" x="487.071074" y="384.48" style="stroke: #000000; stroke-width: 0.8"/>
      </g>
     </g>
     <g id="text_15">
      <!-- 450 -->
      <g transform="translate(477.527324 399.078438) scale(0.1 -0.1)">
       <use xlink:href="#DejaVuSans-34"/>
       <use xlink:href="#DejaVuSans-35" x="63.623047"/>
       <use xlink:href="#DejaVuSans-30" x="127.246094"/>
      </g>
     </g>
    </g>
    <g id="xtick_8">
     <g id="line2d_32">
      <g>
       <use xlink:href="#mc98122ce36" x="543.539281" y="384.48" style="stroke: #000000; stroke-width: 0.8"/>
      </g>
     </g>
     <g id="text_16">
      <!-- 460 -->
      <g transform="translate(533.995531 399.078438) scale(0.1 -0.1)">
       <use xlink:href="#DejaVuSans-34"/>
       <use xlink:href="#DejaVuSans-36" x="63.623047"/>
       <use xlink:href="#DejaVuSans-30" x="127.246094"/>
      </g>
     </g>
    </g>
    <g id="xtick_9">
     <g id="line2d_33">
      <g>
       <use xlink:href="#mc98122ce36" x="600.007489" y="384.48" style="stroke: #000000; stroke-width: 0.8"/>
      </g>
     </g>
     <g id="text_17">
      <!-- 470 -->
      <g transform="translate(590.463739 399.078438) scale(0.1 -0.1)">
       <use xlink:href="#DejaVuSans-34"/>
       <use xlink:href="#DejaVuSans-37" x="63.623047"/>
       <use xlink:href="#DejaVuSans-30" x="127.246094"/>
      </g>
     </g>
    </g>
    <g id="xtick_10">
     <g id="line2d_34">
      <g>
       <use xlink:href="#mc98122ce36" x="656.475696" y="384.48" style="stroke: #000000; stroke-width: 0.8"/>
      </g>
     </g>
     <g id="text_18">
      <!-- 480 -->
      <g transform="translate(646.931946 399.078438) scale(0.1 -0.1)">
       <use xlink:href="#DejaVuSans-34"/>
       <use xlink:href="#DejaVuSans-38" x="63.623047"/>
       <use xlink:href="#DejaVuSans-30" x="127.246094"/>
      </g>
     </g>
    </g>
    <g id="xtick_11">
     <g id="line2d_35">
      <g>
       <use xlink:href="#mc98122ce36" x="712.943903" y="384.48" style="stroke: #000000; stroke-width: 0.8"/>
      </g>
     </g>
     <g id="text_19">
      <!-- 490 -->
      <g transform="translate(703.400153 399.078438) scale(0.1 -0.1)">
       <use xlink:href="#DejaVuSans-34"/>
       <use xlink:href="#DejaVuSans-39" x="63.623047"/>
       <use xlink:href="#DejaVuSans-30" x="127.246094"/>
      </g>
     </g>
    </g>
    <g id="xtick_12">
     <g id="line2d_36">
      <g>
       <use xlink:href="#mc98122ce36" x="769.41211" y="384.48" style="stroke: #000000; stroke-width: 0.8"/>
      </g>
     </g>
     <g id="text_20">
      <!-- 500 -->
      <g transform="translate(759.86836 399.078438) scale(0.1 -0.1)">
       <use xlink:href="#DejaVuSans-35"/>
       <use xlink:href="#DejaVuSans-30" x="63.623047"/>
       <use xlink:href="#DejaVuSans-30" x="127.246094"/>
      </g>
     </g>
    </g>
    <g id="text_21">
     <!-- wavelength/nm -->
     <g transform="translate(578.798182 414.27625) scale(0.12 -0.12)">
      <defs>
       <path id="DejaVuSans-77" d="M 269 3500 
L 844 3500 
L 1563 769 
L 2278 3500 
L 2956 3500 
L 3675 769 
L 4391 3500 
L 4966 3500 
L 4050 0 
L 3372 0 
L 2619 2869 
L 1863 0 
L 1184 0 
L 269 3500 
z
" transform="scale(0.015625)"/>
       <path id="DejaVuSans-61" d="M 2194 1759 
Q 1497 1759 1228 1600 
Q 959 1441 959 1056 
Q 959 750 1161 570 
Q 1363 391 1709 391 
Q 2188 391 2477 730 
Q 2766 1069 2766 1631 
L 2766 1759 
L 2194 1759 
z
M 3341 1997 
L 3341 0 
L 2766 0 
L 2766 531 
Q 2569 213 2275 61 
Q 1981 -91 1556 -91 
Q 1019 -91 701 211 
Q 384 513 384 1019 
Q 384 1609 779 1909 
Q 1175 2209 1959 2209 
L 2766 2209 
L 2766 2266 
Q 2766 2663 2505 2880 
Q 2244 3097 1772 3097 
Q 1472 3097 1187 3025 
Q 903 2953 641 2809 
L 641 3341 
Q 956 3463 1253 3523 
Q 1550 3584 1831 3584 
Q 2591 3584 2966 3190 
Q 3341 2797 3341 1997 
z
" transform="scale(0.015625)"/>
       <path id="DejaVuSans-76" d="M 191 3500 
L 800 3500 
L 1894 563 
L 2988 3500 
L 3597 3500 
L 2284 0 
L 1503 0 
L 191 3500 
z
" transform="scale(0.015625)"/>
       <path id="DejaVuSans-65" d="M 3597 1894 
L 3597 1613 
L 953 1613 
Q 991 1019 1311 708 
Q 1631 397 2203 397 
Q 2534 397 2845 478 
Q 3156 559 3463 722 
L 3463 178 
Q 3153 47 2828 -22 
Q 2503 -91 2169 -91 
Q 1331 -91 842 396 
Q 353 884 353 1716 
Q 353 2575 817 3079 
Q 1281 3584 2069 3584 
Q 2775 3584 3186 3129 
Q 3597 2675 3597 1894 
z
M 3022 2063 
Q 3016 2534 2758 2815 
Q 2500 3097 2075 3097 
Q 1594 3097 1305 2825 
Q 1016 2553 972 2059 
L 3022 2063 
z
" transform="scale(0.015625)"/>
       <path id="DejaVuSans-6c" d="M 603 4863 
L 1178 4863 
L 1178 0 
L 603 0 
L 603 4863 
z
" transform="scale(0.015625)"/>
       <path id="DejaVuSans-6e" d="M 3513 2113 
L 3513 0 
L 2938 0 
L 2938 2094 
Q 2938 2591 2744 2837 
Q 2550 3084 2163 3084 
Q 1697 3084 1428 2787 
Q 1159 2491 1159 1978 
L 1159 0 
L 581 0 
L 581 3500 
L 1159 3500 
L 1159 2956 
Q 1366 3272 1645 3428 
Q 1925 3584 2291 3584 
Q 2894 3584 3203 3211 
Q 3513 2838 3513 2113 
z
" transform="scale(0.015625)"/>
       <path id="DejaVuSans-67" d="M 2906 1791 
Q 2906 2416 2648 2759 
Q 2391 3103 1925 3103 
Q 1463 3103 1205 2759 
Q 947 2416 947 1791 
Q 947 1169 1205 825 
Q 1463 481 1925 481 
Q 2391 481 2648 825 
Q 2906 1169 2906 1791 
z
M 3481 434 
Q 3481 -459 3084 -895 
Q 2688 -1331 1869 -1331 
Q 1566 -1331 1297 -1286 
Q 1028 -1241 775 -1147 
L 775 -588 
Q 1028 -725 1275 -790 
Q 1522 -856 1778 -856 
Q 2344 -856 2625 -561 
Q 2906 -266 2906 331 
L 2906 616 
Q 2728 306 2450 153 
Q 2172 0 1784 0 
Q 1141 0 747 490 
Q 353 981 353 1791 
Q 353 2603 747 3093 
Q 1141 3584 1784 3584 
Q 2172 3584 2450 3431 
Q 2728 3278 2906 2969 
L 2906 3500 
L 3481 3500 
L 3481 434 
z
" transform="scale(0.015625)"/>
       <path id="DejaVuSans-74" d="M 1172 4494 
L 1172 3500 
L 2356 3500 
L 2356 3053 
L 1172 3053 
L 1172 1153 
Q 1172 725 1289 603 
Q 1406 481 1766 481 
L 2356 481 
L 2356 0 
L 1766 0 
Q 1100 0 847 248 
Q 594 497 594 1153 
L 594 3053 
L 172 3053 
L 172 3500 
L 594 3500 
L 594 4494 
L 1172 4494 
z
" transform="scale(0.015625)"/>
       <path id="DejaVuSans-68" d="M 3513 2113 
L 3513 0 
L 2938 0 
L 2938 2094 
Q 2938 2591 2744 2837 
Q 2550 3084 2163 3084 
Q 1697 3084 1428 2787 
Q 1159 2491 1159 1978 
L 1159 0 
L 581 0 
L 581 4863 
L 1159 4863 
L 1159 2956 
Q 1366 3272 1645 3428 
Q 1925 3584 2291 3584 
Q 2894 3584 3203 3211 
Q 3513 2838 3513 2113 
z
" transform="scale(0.015625)"/>
       <path id="DejaVuSans-2f" d="M 1625 4666 
L 2156 4666 
L 531 -594 
L 0 -594 
L 1625 4666 
z
" transform="scale(0.015625)"/>
       <path id="DejaVuSans-6d" d="M 3328 2828 
Q 3544 3216 3844 3400 
Q 4144 3584 4550 3584 
Q 5097 3584 5394 3201 
Q 5691 2819 5691 2113 
L 5691 0 
L 5113 0 
L 5113 2094 
Q 5113 2597 4934 2840 
Q 4756 3084 4391 3084 
Q 3944 3084 3684 2787 
Q 3425 2491 3425 1978 
L 3425 0 
L 2847 0 
L 2847 2094 
Q 2847 2600 2669 2842 
Q 2491 3084 2119 3084 
Q 1678 3084 1418 2786 
Q 1159 2488 1159 1978 
L 1159 0 
L 581 0 
L 581 3500 
L 1159 3500 
L 1159 2956 
Q 1356 3278 1631 3431 
Q 1906 3584 2284 3584 
Q 2666 3584 2933 3390 
Q 3200 3197 3328 2828 
z
" transform="scale(0.015625)"/>
      </defs>
      <use xlink:href="#DejaVuSans-77"/>
      <use xlink:href="#DejaVuSans-61" x="81.787109"/>
      <use xlink:href="#DejaVuSans-76" x="143.066406"/>
      <use xlink:href="#DejaVuSans-65" x="202.246094"/>
      <use xlink:href="#DejaVuSans-6c" x="263.769531"/>
      <use xlink:href="#DejaVuSans-65" x="291.552734"/>
      <use xlink:href="#DejaVuSans-6e" x="353.076172"/>
      <use xlink:href="#DejaVuSans-67" x="416.455078"/>
      <use xlink:href="#DejaVuSans-74" x="479.931641"/>
      <use xlink:href="#DejaVuSans-68" x="519.140625"/>
      <use xlink:href="#DejaVuSans-2f" x="582.519531"/>
      <use xlink:href="#DejaVuSans-6e" x="616.210938"/>
      <use xlink:href="#DejaVuSans-6d" x="679.589844"/>
     </g>
    </g>
   </g>
   <g id="matplotlib.axis_4">
    <g id="ytick_9">
     <g id="line2d_37">
      <g>
       <use xlink:href="#me8c6ee358c" x="473.236364" y="370.327707" style="stroke: #000000; stroke-width: 0.8"/>
      </g>
     </g>
     <g id="text_22">
      <!-- 0.5 -->
      <g transform="translate(441.953551 374.126926) scale(0.1 -0.1)">
       <defs>
        <path id="DejaVuSans-2212" d="M 678 2272 
L 4684 2272 
L 4684 1741 
L 678 1741 
L 678 2272 
z
" transform="scale(0.015625)"/>
       </defs>
       <use xlink:href="#DejaVuSans-2212"/>
       <use xlink:href="#DejaVuSans-30" x="83.789062"/>
       <use xlink:href="#DejaVuSans-2e" x="147.412109"/>
       <use xlink:href="#DejaVuSans-35" x="179.199219"/>
      </g>
     </g>
    </g>
    <g id="ytick_10">
     <g id="line2d_38">
      <g>
       <use xlink:href="#me8c6ee358c" x="473.236364" y="328.948267" style="stroke: #000000; stroke-width: 0.8"/>
      </g>
     </g>
     <g id="text_23">
      <!-- 0.0 -->
      <g transform="translate(450.333239 332.747485) scale(0.1 -0.1)">
       <use xlink:href="#DejaVuSans-30"/>
       <use xlink:href="#DejaVuSans-2e" x="63.623047"/>
       <use xlink:href="#DejaVuSans-30" x="95.410156"/>
      </g>
     </g>
    </g>
    <g id="ytick_11">
     <g id="line2d_39">
      <g>
       <use xlink:href="#me8c6ee358c" x="473.236364" y="287.568826" style="stroke: #000000; stroke-width: 0.8"/>
      </g>
     </g>
     <g id="text_24">
      <!-- 0.5 -->
      <g transform="translate(450.333239 291.368044) scale(0.1 -0.1)">
       <use xlink:href="#DejaVuSans-30"/>
       <use xlink:href="#DejaVuSans-2e" x="63.623047"/>
       <use xlink:href="#DejaVuSans-35" x="95.410156"/>
      </g>
     </g>
    </g>
    <g id="ytick_12">
     <g id="line2d_40">
      <g>
       <use xlink:href="#me8c6ee358c" x="473.236364" y="246.189385" style="stroke: #000000; stroke-width: 0.8"/>
      </g>
     </g>
     <g id="text_25">
      <!-- 1.0 -->
      <g transform="translate(450.333239 249.988604) scale(0.1 -0.1)">
       <use xlink:href="#DejaVuSans-31"/>
       <use xlink:href="#DejaVuSans-2e" x="63.623047"/>
       <use xlink:href="#DejaVuSans-30" x="95.410156"/>
      </g>
     </g>
    </g>
    <g id="ytick_13">
     <g id="line2d_41">
      <g>
       <use xlink:href="#me8c6ee358c" x="473.236364" y="204.809944" style="stroke: #000000; stroke-width: 0.8"/>
      </g>
     </g>
     <g id="text_26">
      <!-- 1.5 -->
      <g transform="translate(450.333239 208.609163) scale(0.1 -0.1)">
       <use xlink:href="#DejaVuSans-31"/>
       <use xlink:href="#DejaVuSans-2e" x="63.623047"/>
       <use xlink:href="#DejaVuSans-35" x="95.410156"/>
      </g>
     </g>
    </g>
    <g id="ytick_14">
     <g id="line2d_42">
      <g>
       <use xlink:href="#me8c6ee358c" x="473.236364" y="163.430503" style="stroke: #000000; stroke-width: 0.8"/>
      </g>
     </g>
     <g id="text_27">
      <!-- 2.0 -->
      <g transform="translate(450.333239 167.229722) scale(0.1 -0.1)">
       <use xlink:href="#DejaVuSans-32"/>
       <use xlink:href="#DejaVuSans-2e" x="63.623047"/>
       <use xlink:href="#DejaVuSans-30" x="95.410156"/>
      </g>
     </g>
    </g>
    <g id="ytick_15">
     <g id="line2d_43">
      <g>
       <use xlink:href="#me8c6ee358c" x="473.236364" y="122.051062" style="stroke: #000000; stroke-width: 0.8"/>
      </g>
     </g>
     <g id="text_28">
      <!-- 2.5 -->
      <g transform="translate(450.333239 125.850281) scale(0.1 -0.1)">
       <use xlink:href="#DejaVuSans-32"/>
       <use xlink:href="#DejaVuSans-2e" x="63.623047"/>
       <use xlink:href="#DejaVuSans-35" x="95.410156"/>
      </g>
     </g>
    </g>
    <g id="ytick_16">
     <g id="line2d_44">
      <g>
       <use xlink:href="#me8c6ee358c" x="473.236364" y="80.671621" style="stroke: #000000; stroke-width: 0.8"/>
      </g>
     </g>
     <g id="text_29">
      <!-- 3.0 -->
      <g transform="translate(450.333239 84.47084) scale(0.1 -0.1)">
       <use xlink:href="#DejaVuSans-33"/>
       <use xlink:href="#DejaVuSans-2e" x="63.623047"/>
       <use xlink:href="#DejaVuSans-30" x="95.410156"/>
      </g>
     </g>
    </g>
    <g id="text_30">
     <!-- Transmittance -->
     <g transform="translate(435.457926 260.697187) rotate(-90) scale(0.12 -0.12)">
      <defs>
       <path id="DejaVuSans-54" d="M -19 4666 
L 3928 4666 
L 3928 4134 
L 2272 4134 
L 2272 0 
L 1638 0 
L 1638 4134 
L -19 4134 
L -19 4666 
z
" transform="scale(0.015625)"/>
       <path id="DejaVuSans-72" d="M 2631 2963 
Q 2534 3019 2420 3045 
Q 2306 3072 2169 3072 
Q 1681 3072 1420 2755 
Q 1159 2438 1159 1844 
L 1159 0 
L 581 0 
L 581 3500 
L 1159 3500 
L 1159 2956 
Q 1341 3275 1631 3429 
Q 1922 3584 2338 3584 
Q 2397 3584 2469 3576 
Q 2541 3569 2628 3553 
L 2631 2963 
z
" transform="scale(0.015625)"/>
       <path id="DejaVuSans-73" d="M 2834 3397 
L 2834 2853 
Q 2591 2978 2328 3040 
Q 2066 3103 1784 3103 
Q 1356 3103 1142 2972 
Q 928 2841 928 2578 
Q 928 2378 1081 2264 
Q 1234 2150 1697 2047 
L 1894 2003 
Q 2506 1872 2764 1633 
Q 3022 1394 3022 966 
Q 3022 478 2636 193 
Q 2250 -91 1575 -91 
Q 1294 -91 989 -36 
Q 684 19 347 128 
L 347 722 
Q 666 556 975 473 
Q 1284 391 1588 391 
Q 1994 391 2212 530 
Q 2431 669 2431 922 
Q 2431 1156 2273 1281 
Q 2116 1406 1581 1522 
L 1381 1569 
Q 847 1681 609 1914 
Q 372 2147 372 2553 
Q 372 3047 722 3315 
Q 1072 3584 1716 3584 
Q 2034 3584 2315 3537 
Q 2597 3491 2834 3397 
z
" transform="scale(0.015625)"/>
       <path id="DejaVuSans-69" d="M 603 3500 
L 1178 3500 
L 1178 0 
L 603 0 
L 603 3500 
z
M 603 4863 
L 1178 4863 
L 1178 4134 
L 603 4134 
L 603 4863 
z
" transform="scale(0.015625)"/>
       <path id="DejaVuSans-63" d="M 3122 3366 
L 3122 2828 
Q 2878 2963 2633 3030 
Q 2388 3097 2138 3097 
Q 1578 3097 1268 2742 
Q 959 2388 959 1747 
Q 959 1106 1268 751 
Q 1578 397 2138 397 
Q 2388 397 2633 464 
Q 2878 531 3122 666 
L 3122 134 
Q 2881 22 2623 -34 
Q 2366 -91 2075 -91 
Q 1284 -91 818 406 
Q 353 903 353 1747 
Q 353 2603 823 3093 
Q 1294 3584 2113 3584 
Q 2378 3584 2631 3529 
Q 2884 3475 3122 3366 
z
" transform="scale(0.015625)"/>
      </defs>
      <use xlink:href="#DejaVuSans-54"/>
      <use xlink:href="#DejaVuSans-72" x="46.333984"/>
      <use xlink:href="#DejaVuSans-61" x="87.447266"/>
      <use xlink:href="#DejaVuSans-6e" x="148.726562"/>
      <use xlink:href="#DejaVuSans-73" x="212.105469"/>
      <use xlink:href="#DejaVuSans-6d" x="264.205078"/>
      <use xlink:href="#DejaVuSans-69" x="361.617188"/>
      <use xlink:href="#DejaVuSans-74" x="389.400391"/>
      <use xlink:href="#DejaVuSans-74" x="428.609375"/>
      <use xlink:href="#DejaVuSans-61" x="467.818359"/>
      <use xlink:href="#DejaVuSans-6e" x="529.097656"/>
      <use xlink:href="#DejaVuSans-63" x="592.476562"/>
      <use xlink:href="#DejaVuSans-65" x="647.457031"/>
     </g>
    </g>
   </g>
   <g id="line2d_45">
    <path d="M 487.071074 369.36 
L 492.717895 310.890816 
L 498.364716 286.881772 
L 504.011537 298.788065 
L 509.658357 327.242674 
L 515.305178 353.213266 
L 520.951999 338.743159 
L 526.598819 352.375972 
L 532.24564 358.751716 
L 537.892461 326.716315 
L 543.539281 301.545572 
L 549.186102 342.178359 
L 554.832923 325.019681 
L 560.479744 327.280163 
L 566.126564 302.798864 
L 571.773385 315.911121 
L 577.420206 336.918894 
L 583.067026 291.65596 
L 588.713847 240.822236 
L 594.360668 202.000857 
L 600.007489 147.024905 
L 605.654309 135.089238 
L 611.30113 107.147274 
L 616.947951 101.07464 
L 622.594771 108.704292 
L 628.241592 109.970365 
L 633.888413 114.406985 
L 639.535234 113.394359 
L 645.182054 120.271028 
L 650.828875 185.712348 
L 656.475696 246.177108 
L 662.122516 256.598796 
L 667.769337 275.224284 
L 673.416158 297.439481 
L 679.062979 312.989666 
L 684.709799 304.105142 
L 690.35662 323.470131 
L 696.003441 330.926794 
L 701.650261 347.518013 
L 707.297082 323.881527 
L 712.943903 331.659536 
L 718.590724 316.688576 
L 724.237544 320.652706 
L 729.884365 321.513337 
L 735.531186 323.921521 
L 741.178006 337.465469 
L 746.824827 323.605471 
L 752.471648 321.769866 
L 758.118469 338.392137 
L 763.765289 346.250012 
" clip-path="url(#pcbc5435843)" style="fill: none; stroke: #ff0000; stroke-width: 1.5; stroke-linecap: square"/>
   </g>
   <g id="patch_8">
    <path d="M 473.236364 384.48 
L 473.236364 51.84 
" style="fill: none; stroke: #000000; stroke-width: 0.8; stroke-linejoin: miter; stroke-linecap: square"/>
   </g>
   <g id="patch_9">
    <path d="M 777.6 384.48 
L 777.6 51.84 
" style="fill: none; stroke: #000000; stroke-width: 0.8; stroke-linejoin: miter; stroke-linecap: square"/>
   </g>
   <g id="patch_10">
    <path d="M 473.236364 384.48 
L 777.6 384.48 
" style="fill: none; stroke: #000000; stroke-width: 0.8; stroke-linejoin: miter; stroke-linecap: square"/>
   </g>
   <g id="patch_11">
    <path d="M 473.236364 51.84 
L 777.6 51.84 
" style="fill: none; stroke: #000000; stroke-width: 0.8; stroke-linejoin: miter; stroke-linecap: square"/>
   </g>
   <g id="text_31">
    <!-- Comparison -->
    <g transform="translate(580.513104 45.84) scale(0.15 -0.15)">
     <defs>
      <path id="DejaVuSans-43" d="M 4122 4306 
L 4122 3641 
Q 3803 3938 3442 4084 
Q 3081 4231 2675 4231 
Q 1875 4231 1450 3742 
Q 1025 3253 1025 2328 
Q 1025 1406 1450 917 
Q 1875 428 2675 428 
Q 3081 428 3442 575 
Q 3803 722 4122 1019 
L 4122 359 
Q 3791 134 3420 21 
Q 3050 -91 2638 -91 
Q 1578 -91 968 557 
Q 359 1206 359 2328 
Q 359 3453 968 4101 
Q 1578 4750 2638 4750 
Q 3056 4750 3426 4639 
Q 3797 4528 4122 4306 
z
" transform="scale(0.015625)"/>
      <path id="DejaVuSans-6f" d="M 1959 3097 
Q 1497 3097 1228 2736 
Q 959 2375 959 1747 
Q 959 1119 1226 758 
Q 1494 397 1959 397 
Q 2419 397 2687 759 
Q 2956 1122 2956 1747 
Q 2956 2369 2687 2733 
Q 2419 3097 1959 3097 
z
M 1959 3584 
Q 2709 3584 3137 3096 
Q 3566 2609 3566 1747 
Q 3566 888 3137 398 
Q 2709 -91 1959 -91 
Q 1206 -91 779 398 
Q 353 888 353 1747 
Q 353 2609 779 3096 
Q 1206 3584 1959 3584 
z
" transform="scale(0.015625)"/>
      <path id="DejaVuSans-70" d="M 1159 525 
L 1159 -1331 
L 581 -1331 
L 581 3500 
L 1159 3500 
L 1159 2969 
Q 1341 3281 1617 3432 
Q 1894 3584 2278 3584 
Q 2916 3584 3314 3078 
Q 3713 2572 3713 1747 
Q 3713 922 3314 415 
Q 2916 -91 2278 -91 
Q 1894 -91 1617 61 
Q 1341 213 1159 525 
z
M 3116 1747 
Q 3116 2381 2855 2742 
Q 2594 3103 2138 3103 
Q 1681 3103 1420 2742 
Q 1159 2381 1159 1747 
Q 1159 1113 1420 752 
Q 1681 391 2138 391 
Q 2594 391 2855 752 
Q 3116 1113 3116 1747 
z
" transform="scale(0.015625)"/>
     </defs>
     <use xlink:href="#DejaVuSans-43"/>
     <use xlink:href="#DejaVuSans-6f" x="69.824219"/>
     <use xlink:href="#DejaVuSans-6d" x="131.005859"/>
     <use xlink:href="#DejaVuSans-70" x="228.417969"/>
     <use xlink:href="#DejaVuSans-61" x="291.894531"/>
     <use xlink:href="#DejaVuSans-72" x="353.173828"/>
     <use xlink:href="#DejaVuSans-69" x="394.287109"/>
     <use xlink:href="#DejaVuSans-73" x="422.070312"/>
     <use xlink:href="#DejaVuSans-6f" x="474.169922"/>
     <use xlink:href="#DejaVuSans-6e" x="535.351562"/>
    </g>
   </g>
   <g id="legend_1">
    <g id="patch_12">
     <path d="M 699.46875 89.19625 
L 770.6 89.19625 
Q 772.6 89.19625 772.6 87.19625 
L 772.6 58.84 
Q 772.6 56.84 770.6 56.84 
L 699.46875 56.84 
Q 697.46875 56.84 697.46875 58.84 
L 697.46875 87.19625 
Q 697.46875 89.19625 699.46875 89.19625 
z
" style="fill: #ffffff; opacity: 0.8; stroke: #cccccc; stroke-linejoin: miter"/>
    </g>
    <g id="PathCollection_2">
     <g>
      <use xlink:href="#m9b1776cd17" x="711.46875" y="65.813437" style="fill: #1f77b4; stroke: #1f77b4"/>
     </g>
    </g>
    <g id="text_32">
     <!-- Original -->
     <g transform="translate(729.46875 68.438437) scale(0.1 -0.1)">
      <defs>
       <path id="DejaVuSans-4f" d="M 2522 4238 
Q 1834 4238 1429 3725 
Q 1025 3213 1025 2328 
Q 1025 1447 1429 934 
Q 1834 422 2522 422 
Q 3209 422 3611 934 
Q 4013 1447 4013 2328 
Q 4013 3213 3611 3725 
Q 3209 4238 2522 4238 
z
M 2522 4750 
Q 3503 4750 4090 4092 
Q 4678 3434 4678 2328 
Q 4678 1225 4090 567 
Q 3503 -91 2522 -91 
Q 1538 -91 948 565 
Q 359 1222 359 2328 
Q 359 3434 948 4092 
Q 1538 4750 2522 4750 
z
" transform="scale(0.015625)"/>
      </defs>
      <use xlink:href="#DejaVuSans-4f"/>
      <use xlink:href="#DejaVuSans-72" x="78.710938"/>
      <use xlink:href="#DejaVuSans-69" x="119.824219"/>
      <use xlink:href="#DejaVuSans-67" x="147.607422"/>
      <use xlink:href="#DejaVuSans-69" x="211.083984"/>
      <use xlink:href="#DejaVuSans-6e" x="238.867188"/>
      <use xlink:href="#DejaVuSans-61" x="302.246094"/>
      <use xlink:href="#DejaVuSans-6c" x="363.525391"/>
     </g>
    </g>
    <g id="line2d_46">
     <path d="M 701.46875 79.616562 
L 711.46875 79.616562 
L 721.46875 79.616562 
" style="fill: none; stroke: #ff0000; stroke-width: 1.5; stroke-linecap: square"/>
    </g>
    <g id="text_33">
     <!-- qsop -->
     <g transform="translate(729.46875 83.116562) scale(0.1 -0.1)">
      <defs>
       <path id="DejaVuSans-71" d="M 947 1747 
Q 947 1113 1208 752 
Q 1469 391 1925 391 
Q 2381 391 2643 752 
Q 2906 1113 2906 1747 
Q 2906 2381 2643 2742 
Q 2381 3103 1925 3103 
Q 1469 3103 1208 2742 
Q 947 2381 947 1747 
z
M 2906 525 
Q 2725 213 2448 61 
Q 2172 -91 1784 -91 
Q 1150 -91 751 415 
Q 353 922 353 1747 
Q 353 2572 751 3078 
Q 1150 3584 1784 3584 
Q 2172 3584 2448 3432 
Q 2725 3281 2906 2969 
L 2906 3500 
L 3481 3500 
L 3481 -1331 
L 2906 -1331 
L 2906 525 
z
" transform="scale(0.015625)"/>
      </defs>
      <use xlink:href="#DejaVuSans-71"/>
      <use xlink:href="#DejaVuSans-73" x="63.476562"/>
      <use xlink:href="#DejaVuSans-6f" x="115.576172"/>
      <use xlink:href="#DejaVuSans-70" x="176.757812"/>
     </g>
    </g>
   </g>
  </g>
 </g>
 <defs>
  <clipPath id="pf3a615c8a8">
   <rect x="108" y="51.84" width="304.363636" height="332.64"/>
  </clipPath>
  <clipPath id="pcbc5435843">
   <rect x="473.236364" y="51.84" width="304.363636" height="332.64"/>
  </clipPath>
 </defs>
</svg>
